<svg width="375" height="813" viewBox="0 0 375 813" fill="none" xmlns="http://www.w3.org/2000/svg">
<g clip-path="url(#clip0_103_33)">
<rect width="375" height="812" transform="translate(-6.10352e-05 0.796814)" fill="white"/>
<rect y="1" width="375" height="812" fill="url(#paint0_linear_103_33)"/>
<path d="M73.2562 653.56C73.2562 654.253 73.0029 654.84 72.4962 655.32C71.9896 655.773 71.4029 656 70.7362 656C69.9896 656 69.3896 655.773 68.9362 655.32C68.4829 654.84 68.2562 654.253 68.2562 653.56V630.44C68.2562 629.747 68.4962 629.173 68.9762 628.72C69.4562 628.24 70.0696 628 70.8162 628C71.4562 628 72.0162 628.24 72.4962 628.72C73.0029 629.173 73.2562 629.747 73.2562 630.44V653.56ZM89.1519 656C88.4052 656 87.7919 655.773 87.3119 655.32C86.8319 654.84 86.5919 654.253 86.5919 653.56V630.36H91.7919V653.56C91.7919 654.253 91.5385 654.84 91.0319 655.32C90.5519 655.773 89.9252 656 89.1519 656ZM80.3119 632.6C79.6185 632.6 79.0319 632.387 78.5519 631.96C78.0985 631.533 77.8719 630.973 77.8719 630.28C77.8719 629.587 78.0985 629.04 78.5519 628.64C79.0319 628.213 79.6185 628 80.3119 628H98.0719C98.7652 628 99.3385 628.213 99.7919 628.64C100.272 629.067 100.512 629.627 100.512 630.32C100.512 631.013 100.272 631.573 99.7919 632C99.3385 632.4 98.7652 632.6 98.0719 632.6H80.3119ZM110.791 632.04C110.791 632.92 110.538 633.813 110.031 634.72C109.551 635.6 108.911 636.347 108.111 636.96C107.338 637.547 106.511 637.84 105.631 637.84C105.338 637.84 105.018 637.72 104.671 637.48C104.351 637.24 104.191 636.827 104.191 636.24C104.191 635.627 104.378 635.267 104.751 635.16C105.151 635.027 105.484 634.893 105.751 634.76C106.098 634.573 106.364 634.36 106.551 634.12C106.764 633.853 106.871 633.533 106.871 633.16C106.871 632.867 106.724 632.613 106.431 632.4C106.164 632.16 105.804 632.04 105.351 632.04C105.191 632.04 105.004 632.067 104.791 632.12C104.578 632.147 104.391 632.213 104.231 632.32C103.964 632.187 103.724 632.027 103.511 631.84C103.324 631.627 103.231 631.293 103.231 630.84C103.231 630.013 103.604 629.307 104.351 628.72C105.124 628.107 106.018 627.8 107.031 627.8C108.178 627.8 109.084 628.187 109.751 628.96C110.444 629.733 110.791 630.76 110.791 632.04ZM125.527 656.4C123.66 656.4 121.98 656.173 120.487 655.72C118.993 655.24 117.567 654.413 116.207 653.24C115.86 652.947 115.593 652.613 115.407 652.24C115.22 651.867 115.127 651.493 115.127 651.12C115.127 650.507 115.34 649.973 115.767 649.52C116.22 649.04 116.78 648.8 117.447 648.8C117.953 648.8 118.407 648.96 118.807 649.28C119.82 650.107 120.82 650.733 121.807 651.16C122.82 651.587 124.06 651.8 125.527 651.8C126.513 651.8 127.42 651.653 128.247 651.36C129.073 651.04 129.74 650.627 130.247 650.12C130.753 649.587 131.007 648.987 131.007 648.32C131.007 647.52 130.767 646.84 130.287 646.28C129.807 645.72 129.073 645.253 128.087 644.88C127.1 644.48 125.847 644.173 124.327 643.96C122.887 643.747 121.62 643.427 120.527 643C119.433 642.547 118.513 641.987 117.767 641.32C117.047 640.627 116.5 639.827 116.127 638.92C115.753 637.987 115.567 636.947 115.567 635.8C115.567 634.067 116.007 632.587 116.887 631.36C117.793 630.133 119.007 629.2 120.527 628.56C122.047 627.92 123.727 627.6 125.567 627.6C127.3 627.6 128.9 627.867 130.367 628.4C131.86 628.907 133.073 629.56 134.007 630.36C134.78 630.973 135.167 631.68 135.167 632.48C135.167 633.067 134.94 633.6 134.487 634.08C134.033 634.56 133.5 634.8 132.887 634.8C132.487 634.8 132.127 634.68 131.807 634.44C131.38 634.067 130.807 633.72 130.087 633.4C129.367 633.053 128.607 632.773 127.807 632.56C127.007 632.32 126.26 632.2 125.567 632.2C124.42 632.2 123.447 632.347 122.647 632.64C121.873 632.933 121.287 633.333 120.887 633.84C120.487 634.347 120.287 634.933 120.287 635.6C120.287 636.4 120.513 637.067 120.967 637.6C121.447 638.107 122.127 638.52 123.007 638.84C123.887 639.133 124.94 639.4 126.167 639.64C127.767 639.933 129.167 640.28 130.367 640.68C131.593 641.08 132.607 641.6 133.407 642.24C134.207 642.853 134.807 643.64 135.207 644.6C135.607 645.533 135.807 646.68 135.807 648.04C135.807 649.773 135.327 651.267 134.367 652.52C133.407 653.773 132.14 654.733 130.567 655.4C129.02 656.067 127.34 656.4 125.527 656.4ZM161.885 656C161.138 656 160.525 655.773 160.045 655.32C159.565 654.84 159.325 654.253 159.325 653.56V630.36H164.525V653.56C164.525 654.253 164.271 654.84 163.765 655.32C163.285 655.773 162.658 656 161.885 656ZM153.045 632.6C152.351 632.6 151.765 632.387 151.285 631.96C150.831 631.533 150.605 630.973 150.605 630.28C150.605 629.587 150.831 629.04 151.285 628.64C151.765 628.213 152.351 628 153.045 628H170.805C171.498 628 172.071 628.213 172.525 628.64C173.005 629.067 173.245 629.627 173.245 630.32C173.245 631.013 173.005 631.573 172.525 632C172.071 632.4 171.498 632.6 170.805 632.6H153.045ZM182.844 653.56C182.844 654.253 182.59 654.84 182.084 655.32C181.577 655.773 180.99 656 180.324 656C179.577 656 178.977 655.773 178.524 655.32C178.07 654.84 177.844 654.253 177.844 653.56V630.44C177.844 629.747 178.084 629.173 178.564 628.72C179.044 628.24 179.657 628 180.404 628C181.044 628 181.604 628.24 182.084 628.72C182.59 629.173 182.844 629.747 182.844 630.44V653.56ZM191.779 627.96C192.153 627.96 192.539 628.067 192.939 628.28C193.366 628.467 193.686 628.72 193.899 629.04L203.619 644L201.619 643.92L211.579 629.04C212.086 628.32 212.739 627.96 213.539 627.96C214.179 627.96 214.753 628.187 215.259 628.64C215.766 629.093 216.019 629.68 216.019 630.4V653.56C216.019 654.253 215.793 654.84 215.339 655.32C214.886 655.773 214.286 656 213.539 656C212.793 656 212.179 655.773 211.699 655.32C211.246 654.84 211.019 654.253 211.019 653.56V634.72L212.579 635.08L204.419 647.52C204.179 647.813 203.873 648.067 203.499 648.28C203.153 648.493 202.793 648.587 202.419 648.56C202.073 648.587 201.713 648.493 201.339 648.28C200.993 648.067 200.699 647.813 200.459 647.52L192.819 635.44L193.859 633.32V653.56C193.859 654.253 193.646 654.84 193.219 655.32C192.793 655.773 192.233 656 191.539 656C190.873 656 190.326 655.773 189.899 655.32C189.473 654.84 189.259 654.253 189.259 653.56V630.4C189.259 629.733 189.499 629.16 189.979 628.68C190.486 628.2 191.086 627.96 191.779 627.96ZM224.873 628H238.273C238.966 628 239.539 628.227 239.993 628.68C240.473 629.107 240.713 629.667 240.713 630.36C240.713 631.027 240.473 631.573 239.993 632C239.539 632.4 238.966 632.6 238.273 632.6H227.073L227.433 631.92V639.72L227.113 639.4H236.473C237.166 639.4 237.739 639.627 238.193 640.08C238.673 640.507 238.913 641.067 238.913 641.76C238.913 642.427 238.673 642.973 238.193 643.4C237.739 643.8 237.166 644 236.473 644H227.233L227.433 643.68V651.76L227.113 651.4H238.273C238.966 651.4 239.539 651.64 239.993 652.12C240.473 652.573 240.713 653.107 240.713 653.72C240.713 654.387 240.473 654.933 239.993 655.36C239.539 655.787 238.966 656 238.273 656H224.873C224.179 656 223.593 655.773 223.113 655.32C222.659 654.84 222.433 654.253 222.433 653.56V630.44C222.433 629.747 222.659 629.173 223.113 628.72C223.593 628.24 224.179 628 224.873 628ZM266.814 656C266.068 656 265.454 655.773 264.974 655.32C264.494 654.84 264.254 654.253 264.254 653.56V630.36H269.454V653.56C269.454 654.253 269.201 654.84 268.694 655.32C268.214 655.773 267.588 656 266.814 656ZM257.974 632.6C257.281 632.6 256.694 632.387 256.214 631.96C255.761 631.533 255.534 630.973 255.534 630.28C255.534 629.587 255.761 629.04 256.214 628.64C256.694 628.213 257.281 628 257.974 628H275.734C276.428 628 277.001 628.213 277.454 628.64C277.934 629.067 278.174 629.627 278.174 630.32C278.174 631.013 277.934 631.573 277.454 632C277.001 632.4 276.428 632.6 275.734 632.6H257.974ZM307.752 642C307.752 644 307.419 645.867 306.752 647.6C306.086 649.333 305.139 650.867 303.912 652.2C302.712 653.507 301.272 654.533 299.592 655.28C297.939 656.027 296.126 656.4 294.152 656.4C292.179 656.4 290.366 656.027 288.712 655.28C287.059 654.533 285.619 653.507 284.392 652.2C283.192 650.867 282.259 649.333 281.592 647.6C280.926 645.867 280.592 644 280.592 642C280.592 640 280.926 638.133 281.592 636.4C282.259 634.667 283.192 633.147 284.392 631.84C285.619 630.507 287.059 629.467 288.712 628.72C290.366 627.973 292.179 627.6 294.152 627.6C296.126 627.6 297.939 627.973 299.592 628.72C301.272 629.467 302.712 630.507 303.912 631.84C305.139 633.147 306.086 634.667 306.752 636.4C307.419 638.133 307.752 640 307.752 642ZM302.552 642C302.552 640.213 302.192 638.6 301.472 637.16C300.752 635.693 299.766 634.533 298.512 633.68C297.259 632.827 295.806 632.4 294.152 632.4C292.499 632.4 291.046 632.827 289.792 633.68C288.539 634.533 287.552 635.68 286.832 637.12C286.139 638.56 285.792 640.187 285.792 642C285.792 643.787 286.139 645.413 286.832 646.88C287.552 648.32 288.539 649.467 289.792 650.32C291.046 651.173 292.499 651.6 294.152 651.6C295.806 651.6 297.259 651.173 298.512 650.32C299.766 649.467 300.752 648.32 301.472 646.88C302.192 645.413 302.552 643.787 302.552 642ZM119.83 700C119.083 700 118.47 699.773 117.99 699.32C117.51 698.84 117.27 698.253 117.27 697.56V674.36H122.47V697.56C122.47 698.253 122.217 698.84 121.71 699.32C121.23 699.773 120.603 700 119.83 700ZM110.99 676.6C110.297 676.6 109.71 676.387 109.23 675.96C108.777 675.533 108.55 674.973 108.55 674.28C108.55 673.587 108.777 673.04 109.23 672.64C109.71 672.213 110.297 672 110.99 672H128.75C129.443 672 130.017 672.213 130.47 672.64C130.95 673.067 131.19 673.627 131.19 674.32C131.19 675.013 130.95 675.573 130.47 676C130.017 676.4 129.443 676.6 128.75 676.6H110.99ZM138.669 700C137.922 700 137.256 699.773 136.669 699.32C136.082 698.84 135.789 698.253 135.789 697.56V674.44C135.789 673.747 136.016 673.173 136.469 672.72C136.949 672.24 137.536 672 138.229 672H149.749C151.136 672 152.429 672.373 153.629 673.12C154.856 673.84 155.842 674.853 156.589 676.16C157.336 677.44 157.709 678.92 157.709 680.6C157.709 681.613 157.496 682.6 157.069 683.56C156.669 684.52 156.109 685.387 155.389 686.16C154.696 686.933 153.909 687.533 153.029 687.96L153.069 687.04C153.816 687.44 154.429 687.92 154.909 688.48C155.416 689.013 155.802 689.6 156.069 690.24C156.362 690.853 156.536 691.52 156.589 692.24C156.696 692.907 156.762 693.493 156.789 694C156.842 694.507 156.922 694.933 157.029 695.28C157.162 695.627 157.402 695.893 157.749 696.08C158.336 696.427 158.696 696.933 158.829 697.6C158.989 698.24 158.842 698.813 158.389 699.32C158.096 699.667 157.722 699.893 157.269 700C156.816 700.08 156.362 700.08 155.909 700C155.456 699.893 155.082 699.76 154.789 699.6C154.336 699.333 153.882 698.947 153.429 698.44C152.976 697.907 152.602 697.2 152.309 696.32C152.042 695.44 151.909 694.307 151.909 692.92C151.909 692.467 151.829 692.053 151.669 691.68C151.509 691.28 151.282 690.947 150.989 690.68C150.696 690.387 150.322 690.173 149.869 690.04C149.416 689.88 148.882 689.8 148.269 689.8H140.189L140.789 688.88V697.56C140.789 698.253 140.602 698.84 140.229 699.32C139.856 699.773 139.336 700 138.669 700ZM140.229 685.68H149.549C150.029 685.68 150.496 685.467 150.949 685.04C151.402 684.587 151.776 683.987 152.069 683.24C152.362 682.467 152.509 681.627 152.509 680.72C152.509 679.547 152.189 678.573 151.549 677.8C150.936 677 150.269 676.6 149.549 676.6H140.309L140.789 675.32V686.64L140.229 685.68ZM173.93 678.28L165.29 698.6C165.103 699.107 164.81 699.507 164.41 699.8C164.037 700.067 163.623 700.2 163.17 700.2C162.45 700.2 161.917 700 161.57 699.6C161.223 699.2 161.05 698.707 161.05 698.12C161.05 697.88 161.09 697.627 161.17 697.36L171.13 673.44C171.343 672.907 171.663 672.493 172.09 672.2C172.543 671.907 173.023 671.787 173.53 671.84C174.01 671.84 174.45 671.987 174.85 672.28C175.277 672.547 175.583 672.933 175.77 673.44L185.61 696.88C185.743 697.227 185.81 697.547 185.81 697.84C185.81 698.56 185.57 699.133 185.09 699.56C184.637 699.987 184.13 700.2 183.57 700.2C183.09 700.2 182.65 700.053 182.25 699.76C181.877 699.467 181.583 699.067 181.37 698.56L172.77 678.52L173.93 678.28ZM166.53 693.72L168.73 689.12H179.53L180.29 693.72H166.53ZM206.365 671.92C207.032 671.92 207.605 672.147 208.085 672.6C208.592 673.027 208.845 673.573 208.845 674.24C208.845 674.587 208.765 674.947 208.605 675.32L198.725 698.44C198.485 698.973 198.138 699.373 197.685 699.64C197.258 699.88 196.818 700 196.365 700C195.938 699.973 195.525 699.84 195.125 699.6C194.725 699.333 194.418 698.96 194.205 698.48L184.325 675.28C184.245 675.12 184.192 674.96 184.165 674.8C184.138 674.613 184.125 674.44 184.125 674.28C184.125 673.507 184.405 672.92 184.965 672.52C185.525 672.093 186.058 671.88 186.565 671.88C187.578 671.88 188.312 672.4 188.765 673.44L197.525 694.04L196.125 694.08L204.165 673.44C204.618 672.427 205.352 671.92 206.365 671.92ZM215.874 672H229.274C229.968 672 230.541 672.227 230.994 672.68C231.474 673.107 231.714 673.667 231.714 674.36C231.714 675.027 231.474 675.573 230.994 676C230.541 676.4 229.968 676.6 229.274 676.6H218.074L218.434 675.92V683.72L218.114 683.4H227.474C228.168 683.4 228.741 683.627 229.194 684.08C229.674 684.507 229.914 685.067 229.914 685.76C229.914 686.427 229.674 686.973 229.194 687.4C228.741 687.8 228.168 688 227.474 688H218.234L218.434 687.68V695.76L218.114 695.4H229.274C229.968 695.4 230.541 695.64 230.994 696.12C231.474 696.573 231.714 697.107 231.714 697.72C231.714 698.387 231.474 698.933 230.994 699.36C230.541 699.787 229.968 700 229.274 700H215.874C215.181 700 214.594 699.773 214.114 699.32C213.661 698.84 213.434 698.253 213.434 697.56V674.44C213.434 673.747 213.661 673.173 214.114 672.72C214.594 672.24 215.181 672 215.874 672ZM252.165 695.32C252.858 695.32 253.432 695.547 253.885 696C254.365 696.427 254.605 696.987 254.605 697.68C254.605 698.347 254.365 698.907 253.885 699.36C253.432 699.787 252.858 700 252.165 700H239.165C238.472 700 237.885 699.773 237.405 699.32C236.952 698.84 236.725 698.253 236.725 697.56V674.44C236.725 673.747 236.965 673.173 237.445 672.72C237.925 672.24 238.538 672 239.285 672C239.925 672 240.485 672.24 240.965 672.72C241.472 673.173 241.725 673.747 241.725 674.44V696L240.845 695.32H252.165ZM261.946 691.16C261.039 691.16 260.546 690.653 260.466 689.64L259.306 674.92C259.253 674.093 259.466 673.4 259.946 672.84C260.453 672.28 261.106 672 261.906 672C262.706 672 263.359 672.28 263.866 672.84C264.373 673.4 264.586 674.093 264.506 674.92L263.386 689.64C263.306 690.653 262.826 691.16 261.946 691.16ZM261.666 700C260.893 700 260.293 699.8 259.866 699.4C259.466 698.973 259.266 698.373 259.266 697.6V696.92C259.266 696.147 259.466 695.56 259.866 695.16C260.293 694.733 260.893 694.52 261.666 694.52H262.186C262.959 694.52 263.546 694.733 263.946 695.16C264.373 695.56 264.586 696.147 264.586 696.92V697.6C264.586 698.373 264.373 698.973 263.946 699.4C263.546 699.8 262.959 700 262.186 700H261.666Z" fill="url(#paint1_linear_103_33)"/>
<g filter="url(#filter0_d_103_33)">
<path d="M145.132 275.19C143.83 273.247 124.744 256.092 123.31 254.804L126.876 254.503C126.876 254.503 144.041 273.195 145.132 275.19Z" fill="#E3EAED"/>
<path opacity="0.5" d="M145.132 275.19C143.83 273.247 124.744 256.092 123.31 254.804L126.876 254.503C126.876 254.503 144.041 273.195 145.132 275.19Z" fill="white"/>
<path d="M145.187 275.33C145.187 275.33 145.187 275.33 145.181 275.402C144.985 275.771 143.546 275.972 141.948 276.05L141.891 276.044C140.412 276.19 138.922 276.08 137.481 275.719C137.07 275.353 122.998 266.081 114.384 260.409L114.038 260.195L113.97 260.188L112.754 259.381L109.199 257.053L107.821 256.146L123.34 254.844C124.153 255.564 130.592 261.355 136.281 266.613L136.87 267.154C137.396 267.641 137.922 268.127 138.427 268.588C140.782 270.671 143.031 272.884 145.164 275.218C145.164 275.218 145.158 275.278 145.156 275.302L145.187 275.33Z" fill="#E3EAED"/>
<g opacity="0.1">
<path opacity="0.1" d="M145.188 275.325C145.188 275.325 145.188 275.325 145.181 275.397C144.985 275.766 143.547 275.968 141.948 276.045L141.892 276.04C140.412 276.185 138.923 276.076 137.482 275.715C137.059 275.347 122.623 265.81 114.043 260.142C115.455 261.053 134.013 272.85 138.421 268.534C140.776 270.617 143.024 272.83 145.157 275.165C145.157 275.165 145.152 275.225 145.149 275.249L145.188 275.325Z" fill="black"/>
</g>
<path d="M344.438 312.285C344.232 314.446 332.925 314.067 331.437 313.464C329.95 312.861 212.34 250.105 212.34 250.105L259.162 235.549L260.375 236.623L260.902 237.097C268.623 243.968 291.664 264.531 311.773 282.609L312.964 283.68L314.55 285.043C328.487 297.647 340.569 308.582 344.438 312.285Z" fill="#E3EAED"/>
<path d="M344.439 312.277C334.311 302.571 267.862 243.306 259.161 235.554L265.062 233.695C265.062 233.695 341.897 308.701 344.16 311.608C344.331 311.784 344.431 312.024 344.439 312.277V312.277Z" fill="#E3EAED"/>
<path opacity="0.5" d="M344.439 312.277C334.311 302.571 267.862 243.306 259.161 235.554L265.062 233.695C265.062 233.695 341.897 308.701 344.16 311.608C344.331 311.784 344.431 312.024 344.439 312.277V312.277Z" fill="white"/>
<g opacity="0.5">
<path opacity="0.1" d="M344.439 312.278C344.232 314.44 332.926 314.061 331.438 313.458C329.951 312.855 212.34 250.099 212.34 250.099L259.162 235.543C259.162 235.543 246.746 247.951 271.177 271.216C287.825 287.072 306.712 291.836 314.492 285.056C328.488 297.64 340.57 308.576 344.439 312.278Z" fill="black"/>
</g>
<path d="M245.513 270.167C241.86 271.623 237.95 272.654 238.02 268.929C238.063 267.406 239.329 265.891 245.196 263.556C246.564 263.009 249.939 261.829 250.564 264.991C251.188 268.153 246.883 269.607 245.513 270.167Z" fill="#E3EAED"/>
<path opacity="0.1" d="M245.513 270.167C241.86 271.623 237.95 272.654 238.02 268.929C238.063 267.406 239.329 265.891 245.196 263.556C246.564 263.009 249.939 261.829 250.564 264.991C251.188 268.153 246.883 269.607 245.513 270.167Z" fill="black"/>
<path d="M272.726 285.177C269.073 286.633 265.15 287.675 265.232 283.951C265.264 282.415 266.531 280.9 272.407 278.579C273.776 278.031 277.15 276.864 277.774 280.026C278.399 283.187 274.095 284.63 272.726 285.177Z" fill="#E3EAED"/>
<path opacity="0.1" d="M272.726 285.177C269.073 286.633 265.15 287.675 265.232 283.951C265.264 282.415 266.531 280.9 272.407 278.579C273.776 278.031 277.15 276.864 277.774 280.026C278.399 283.187 274.095 284.63 272.726 285.177Z" fill="black"/>
<path d="M299.926 300.198C296.284 301.655 292.361 302.698 292.443 298.973C292.475 297.45 293.741 295.935 299.607 293.6C300.986 293.066 304.35 291.885 304.986 295.048C305.622 298.211 301.306 299.652 299.926 300.198Z" fill="#E3EAED"/>
<path opacity="0.1" d="M299.926 300.198C296.284 301.655 292.361 302.698 292.443 298.973C292.475 297.45 293.741 295.935 299.607 293.6C300.986 293.066 304.35 291.885 304.986 295.048C305.622 298.211 301.306 299.652 299.926 300.198Z" fill="black"/>
<path d="M293.714 267.034C289.694 273.157 281.692 274.73 276.586 276.301C263.002 280.575 253.246 282.768 249.74 269.769C249.321 268.266 249.115 266.703 249.131 265.131C249.266 255.595 258.985 251.751 263.931 249.582C269.905 246.955 274.116 245.298 277.238 244.252C282.324 242.533 284.522 242.525 286.769 242.607C289.421 242.764 295.308 244.042 296.162 255.805C296.643 259.723 295.774 263.708 293.714 267.034V267.034Z" fill="#E3EAED"/>
<path d="M294.76 258.014C294.086 265.062 289.376 270.38 284.238 269.888C279.1 269.396 275.485 263.282 276.159 256.234C276.834 249.185 281.543 243.868 286.681 244.359C291.819 244.851 295.435 250.965 294.76 258.014Z" fill="#455A64"/>
<path d="M293.672 257.907C293.076 264.139 288.918 268.831 284.381 268.397C279.844 267.962 276.641 262.566 277.237 256.334C277.834 250.102 282.004 245.4 286.541 245.834C291.077 246.268 294.268 251.675 293.672 257.907Z" fill="#F0F0F0"/>
<path d="M100.16 235.971L97.9244 236.606L92.8919 238.002L76.84 228.723C61.3049 219.784 42.8554 209.245 39.2979 207.547L39.7492 207.736L40.1663 207.921L40.7151 208.168L41.0212 208.318L42.2614 208.873L43.5335 209.455L47.0967 211.093L48.3245 211.659L49.4184 212.187L50.0431 212.477L51.9829 213.378L53.2651 213.973L69.9506 221.774L71.5276 222.519L77.739 225.428L88.4512 230.464L89.9624 231.178C91.6936 231.986 93.2501 232.705 94.6286 233.37L95.8224 233.933L96.37 234.191L96.6557 234.315C98.8879 235.389 100.16 235.971 100.16 235.971Z" fill="#E3EAED"/>
<path opacity="0.5" d="M100.16 235.971L97.9244 236.606L92.8919 238.002L76.84 228.723C61.3049 219.784 42.8554 209.245 39.2979 207.547L39.7492 207.736L40.1663 207.921L40.7151 208.168L41.0212 208.318L42.2614 208.873L43.5335 209.455L47.0967 211.093L48.3245 211.659L49.4184 212.187L50.0431 212.477L51.9829 213.378L53.2651 213.973L69.9506 221.774L71.5276 222.519L77.739 225.428L88.4512 230.464L89.9624 231.178C91.6936 231.986 93.2501 232.705 94.6286 233.37L95.8224 233.933L96.37 234.191L96.6557 234.315C98.8879 235.389 100.16 235.971 100.16 235.971Z" fill="white"/>
<g opacity="0.1">
<path opacity="0.1" d="M92.892 238.002L79.4136 241.778C79.4136 241.778 51.7431 224.734 35.2799 214.13C38.0254 215.702 66.1015 232.215 73.5204 230.998C74.2054 230.936 74.867 230.696 75.4463 230.299C76.0255 229.902 76.5043 229.36 76.84 228.723L92.892 238.002Z" fill="black"/>
</g>
<path d="M128.218 221.584L95.1378 234.632C95.1378 234.632 98.1961 206.024 100.416 185.454C100.484 184.746 100.551 184.049 100.616 183.365C100.682 182.681 100.724 182.236 100.777 181.684C101.531 174.643 102.154 168.971 102.435 166.392C103.342 158.118 104.342 156.517 106.289 158.061C108.236 159.604 116.633 168.975 119.038 173.022C121.01 176.337 124.247 195.624 126.288 208.858C126.276 208.978 126.267 209.074 126.325 209.188C126.445 209.963 126.568 210.714 126.672 211.427C127.624 217.383 128.218 221.584 128.218 221.584Z" fill="#E3EAED"/>
<g opacity="0.1">
<path opacity="0.1" d="M128.218 221.581L95.1379 234.629C95.1379 234.629 98.1962 206.021 100.417 185.451C104.005 196.871 111.747 212.734 126.717 211.428C127.624 217.38 128.218 221.581 128.218 221.581Z" fill="black"/>
</g>
<path d="M71.4249 250.029C69.0039 241.121 83.5315 234.634 99.8949 228.7C116.258 222.765 277.427 165.494 300.408 161.211C323.389 156.927 348.586 168.245 351.696 182.151C356.355 203.076 326.906 217.416 222.773 251.717C209.123 256.215 149.127 265.499 116.18 262.455C80.9398 259.204 72.6243 254.36 71.4249 250.029Z" fill="#E3EAED"/>
<path opacity="0.5" d="M71.4249 250.029C69.0039 241.121 83.5315 234.634 99.8949 228.7C116.258 222.765 277.427 165.494 300.408 161.211C323.389 156.927 348.586 168.245 351.696 182.151C356.355 203.076 326.906 217.416 222.773 251.717C209.123 256.215 149.127 265.499 116.18 262.455C80.9398 259.204 72.6243 254.36 71.4249 250.029Z" fill="white"/>
<path opacity="0.1" d="M222.757 251.764C209.106 256.262 149.112 265.534 116.163 262.502C80.9348 259.252 72.6147 254.457 71.42 250.077C70.1484 245.423 73.519 241.42 79.3698 237.811C79.2502 238.679 79.3103 239.561 79.5459 240.397C80.6413 244.38 88.1917 248.725 120.153 251.675C150.049 254.427 195.488 232.917 207.862 228.842C302.356 197.666 338.117 197.744 333.854 178.784C332.013 170.513 321.603 163.276 308.801 160.342C329.142 159.72 348.952 169.917 351.682 182.174C356.344 203.075 326.894 217.416 222.757 251.764Z" fill="black"/>
<path d="M123.043 226.376L126.738 225.082L126.21 230.605L122.516 231.887L123.043 226.376Z" fill="#455A64"/>
<path d="M129.792 224.024L133.747 222.645L133.219 228.169L129.265 229.536L129.792 224.024Z" fill="#455A64"/>
<path d="M136.789 221.595L140.744 220.216L140.216 225.74L136.262 227.106L136.789 221.595Z" fill="#455A64"/>
<path d="M143.798 219.161L147.742 217.782L147.213 223.305L143.271 224.673L143.798 219.161Z" fill="#455A64"/>
<path d="M150.796 216.727L154.751 215.348L154.222 220.872L150.268 222.238L150.796 216.727Z" fill="#455A64"/>
<path d="M157.805 214.296L161.748 212.916L161.219 218.44L157.276 219.819L157.805 214.296Z" fill="#455A64"/>
<path d="M164.802 211.864L168.757 210.485L168.228 216.009L164.273 217.387L164.802 211.864Z" fill="#455A64"/>
<path d="M171.799 209.432L175.754 208.053L175.225 213.577L171.27 214.955L171.799 209.432Z" fill="#455A64"/>
<path d="M178.807 207.006L182.751 205.627L182.222 211.15L178.279 212.53L178.807 207.006Z" fill="#455A64"/>
<path d="M185.805 204.569L189.76 203.191L189.231 208.714L185.277 210.081L185.805 204.569Z" fill="#455A64"/>
<path d="M192.814 202.138L196.757 200.759L196.229 206.282L192.286 207.65L192.814 202.138Z" fill="#455A64"/>
<path d="M199.811 199.706L203.766 198.328L203.237 203.851L199.283 205.218L199.811 199.706Z" fill="#455A64"/>
<path d="M206.808 197.273L210.762 195.906L210.235 201.418L206.281 202.784L206.808 197.273Z" fill="#455A64"/>
<path d="M213.818 194.837L217.76 193.469L217.232 198.981L213.29 200.348L213.818 194.837Z" fill="#455A64"/>
<path d="M220.814 192.41L224.768 191.044L224.241 196.555L220.287 197.922L220.814 192.41Z" fill="#455A64"/>
<path d="M227.811 189.978L231.765 188.612L231.238 194.123L227.283 195.502L227.811 189.978Z" fill="#455A64"/>
<path d="M234.82 187.542L238.774 186.175L238.246 191.687L234.292 193.066L234.82 187.542Z" fill="#455A64"/>
<path d="M241.818 185.11L245.772 183.744L245.244 189.255L241.289 190.634L241.818 185.11Z" fill="#455A64"/>
<path d="M248.826 182.682L252.769 181.314L252.241 186.826L248.298 188.205L248.826 182.682Z" fill="#455A64"/>
<path d="M255.825 180.247L259.778 178.881L259.251 184.392L255.296 185.771L255.825 180.247Z" fill="#455A64"/>
<path d="M262.821 177.818L266.775 176.451L266.247 181.963L262.292 183.342L262.821 177.818Z" fill="#455A64"/>
<path d="M273.784 174.015L273.256 179.527L269.301 180.905L269.83 175.382L273.784 174.015Z" fill="#455A64"/>
<path d="M280.781 171.583L280.254 177.095L276.299 178.473L276.827 172.95L280.781 171.583Z" fill="#455A64"/>
<path d="M287.779 169.151L287.251 174.663L283.307 176.043L283.836 170.519L287.779 169.151Z" fill="#455A64"/>
<path d="M294.787 166.721L294.259 172.232L290.305 173.611L290.833 168.087L294.787 166.721Z" fill="#455A64"/>
<path d="M312.527 166.139C314.769 164.661 317.281 163.707 319.891 163.341L319.546 166.944C317.303 166.705 314.995 166.423 312.527 166.139Z" fill="#455A64"/>
<path d="M328.22 163.254L327.735 168.321C325.982 167.984 324.234 167.708 322.463 167.441L322.887 163.01C324.67 162.91 326.456 162.992 328.22 163.254V163.254Z" fill="#455A64"/>
<path d="M344.401 172.027C342.915 171.885 341.584 171.442 340.239 171.144C338.894 170.846 337.592 170.455 336.278 170.195C334.379 169.699 332.495 169.3 330.676 168.932L331.161 163.865C333.437 164.418 335.632 165.284 337.69 166.441C338.968 167.144 340.184 167.966 341.324 168.897C341.907 169.349 342.456 169.847 342.967 170.387C343.431 170.916 343.941 171.45 344.401 172.027Z" fill="#455A64"/>
<g opacity="0.1">
<path opacity="0.1" d="M219.57 205.415L172.942 223.807C172.942 223.807 106.119 176.939 58.2238 142.788C61.9913 145.281 148.256 202.48 160.828 196.34C165.571 194.019 167.441 187.036 167.863 179.164L219.57 205.415Z" fill="black"/>
</g>
<path d="M92.8921 238.004L79.4137 241.78C79.4137 241.78 51.7433 224.736 35.28 214.132L35.1066 214.031L34.8799 213.888L30.115 210.815C25.8647 207.984 23.1808 206.128 23.315 205.923C23.889 204.948 34.6881 205.727 38.8763 207.412L39.001 207.424L39.264 207.546C42.7252 209.174 60.0366 219.046 75.2351 227.796L75.5831 227.987L76.8084 228.698L92.8921 238.004Z" fill="#E3EAED"/>
<path d="M219.57 205.412L172.942 223.804C172.942 223.804 106.119 176.936 58.2238 142.785L58.1173 142.702C32.5491 124.502 13.0514 110.324 13.4365 109.889C14.402 108.769 27.9999 110.204 33.3127 111.5C33.8281 111.603 34.3346 111.749 34.8276 111.936C37.0328 112.813 114.005 151.819 167.882 179.199L219.57 205.412Z" fill="#E3EAED"/>
<path d="M226.351 202.969L212.505 208.43C180.163 190.212 45.2959 117.964 34.0292 111.906L33.6812 111.715L33.3955 111.59L33.2934 111.581C33.8088 111.684 34.3154 111.829 34.8083 112.017C38.2075 113.335 226.351 202.969 226.351 202.969Z" fill="#E3EAED"/>
<path opacity="0.5" d="M226.351 202.969L212.505 208.43C180.163 190.212 45.2959 117.964 34.0292 111.906L33.6812 111.715L33.3955 111.59L33.2934 111.581C33.8088 111.684 34.3154 111.829 34.8083 112.017C38.2075 113.335 226.351 202.969 226.351 202.969Z" fill="white"/>
<path d="M131.029 194.955C126.471 196.773 121.574 198.073 121.676 193.418C121.722 191.508 123.3 189.611 130.638 186.726C132.352 186.042 136.567 184.567 137.328 188.578C138.089 192.589 132.754 194.272 131.029 194.955Z" fill="#E3EAED"/>
<path opacity="0.1" d="M131.029 194.955C126.471 196.773 121.574 198.073 121.676 193.418C121.722 191.508 123.3 189.611 130.638 186.726C132.352 186.042 136.567 184.567 137.328 188.578C138.089 192.589 132.754 194.272 131.029 194.955Z" fill="black"/>
<path d="M95.334 171.226C90.7762 173.044 85.8788 174.344 85.981 169.689C86.0264 167.778 87.6032 165.894 94.9426 162.997C96.6563 162.313 100.871 160.85 101.633 164.849C102.395 168.848 97.059 170.543 95.334 171.226Z" fill="#E3EAED"/>
<path opacity="0.1" d="M95.334 171.226C90.7762 173.044 85.8788 174.344 85.981 169.689C86.0264 167.778 87.6032 165.894 94.9426 162.997C96.6563 162.313 100.871 160.85 101.633 164.849C102.395 168.848 97.059 170.543 95.334 171.226Z" fill="black"/>
<path d="M59.5482 147.247C55.2991 148.949 50.7308 150.16 50.8257 145.819C50.8699 144.042 52.3047 142.325 59.1708 139.589C60.7767 138.955 64.6737 137.583 65.4201 141.266C66.1665 144.948 61.1416 146.624 59.5482 147.247Z" fill="#E3EAED"/>
<path opacity="0.1" d="M59.5482 147.247C55.2991 148.949 50.7308 150.16 50.8257 145.819C50.8699 144.042 52.3047 142.325 59.1708 139.589C60.7767 138.955 64.6737 137.583 65.4201 141.266C66.1665 144.948 61.1416 146.624 59.5482 147.247Z" fill="black"/>
<path d="M187.598 195.764C183.578 201.887 175.576 203.46 170.469 205.031C156.886 209.305 147.129 211.51 143.624 198.5C143.204 196.996 142.999 195.433 143.015 193.861C143.149 184.325 152.868 180.481 157.814 178.312C163.788 175.697 167.999 174.028 171.121 172.982C176.206 171.275 178.406 171.255 180.653 171.337C183.305 171.494 189.191 172.772 190.046 184.535C190.527 188.453 189.658 192.439 187.598 195.764V195.764Z" fill="#E3EAED"/>
<path d="M178.096 198.655C183.232 199.147 187.943 193.831 188.618 186.781C189.293 179.732 185.676 173.619 180.539 173.127C175.403 172.635 170.692 177.952 170.017 185.001C169.342 192.051 172.959 198.164 178.096 198.655Z" fill="#455A64"/>
<path d="M187.529 186.676C186.932 192.908 182.775 197.599 178.238 197.165C173.701 196.731 170.497 191.335 171.094 185.103C171.69 178.871 175.859 174.181 180.396 174.615C184.933 175.049 188.125 180.444 187.529 186.676Z" fill="#F0F0F0"/>
<path d="M43.5313 209.48L42.2593 208.897L43.5313 209.48Z" fill="#E3EAED"/>
</g>
<path d="M35.8398 58.6252C34.5749 58.0526 33.3655 57.3538 32.2279 56.5381C32.7788 56.2502 36.2734 54.2873 35.7281 51.0544C32.5994 52.9494 27.6119 52.0588 26.2604 50.1142C24.017 46.473 22.7961 42.2259 22.7376 37.8598C22.6791 33.4937 23.7854 29.1852 25.9297 25.4281C22.6504 27.3573 19.8533 30.0928 17.7777 33.4006C15.7021 36.7084 14.4097 40.49 14.0112 44.4219C13.6126 48.3539 14.1197 52.3191 15.4891 55.9784C16.8585 59.6377 19.0495 62.8823 21.8745 65.4344C24.6995 67.9865 28.0746 69.7703 31.711 70.6331C35.3473 71.496 39.1368 71.4122 42.7551 70.389C46.3734 69.3658 49.7129 67.4335 52.488 64.7576C55.263 62.0817 57.391 58.7417 58.6898 55.0234C55.5452 57.7949 51.7451 59.5987 47.7115 60.2345C43.6778 60.8703 39.5685 60.3132 35.8398 58.6252V58.6252Z" fill="#F0F0F0"/>
<path d="M44.4007 48.9066C43.1358 48.334 41.9264 47.6352 40.7888 46.8196C41.3397 46.5316 44.8343 44.5687 44.289 41.3359C41.1603 43.2309 36.1728 42.3403 34.8214 40.3957C32.578 36.7544 31.357 32.5073 31.2985 28.1412C31.24 23.7751 32.3463 19.4666 34.4906 15.7096C31.2113 17.6388 28.4142 20.3743 26.3386 23.682C24.263 26.9898 22.9706 30.7714 22.5721 34.7033C22.1735 38.6353 22.6806 42.6005 24.05 46.2599C25.4194 49.9192 27.6104 53.1637 30.4354 55.7158C33.2605 58.2679 36.6355 60.0517 40.2719 60.9146C43.9082 61.7774 47.6977 61.6936 51.316 60.6704C54.9343 59.6472 58.2738 57.715 61.0489 55.0391C63.8239 52.3631 65.9519 49.0232 67.2507 45.3049C64.1061 48.0763 60.306 49.8801 56.2724 50.5159C52.2387 51.1517 48.1294 50.5947 44.4007 48.9066V48.9066Z" fill="url(#paint2_linear_103_33)"/>
<path d="M19.642 32.1831C18.0291 34.626 16.8312 37.3448 16.1029 40.2155C15.3623 43.0698 15.1144 46.0366 15.371 48.9727C15.6308 51.8966 16.4068 54.7373 17.6588 57.3478C20.2191 62.5965 24.6039 66.5786 29.9023 68.467C32.5339 69.3958 35.3142 69.7837 38.0944 69.6101C39.4829 69.5183 40.8611 69.2841 42.2096 68.9108C46.2884 67.7719 50.0416 65.5689 53.1235 62.5048C51.1549 64.6612 48.8299 66.418 46.2657 67.6864C45.6312 68.0165 44.9812 68.3117 44.3183 68.5707L43.8237 68.7795C43.6588 68.8491 43.489 68.8966 43.3208 68.9572C42.985 69.0713 42.6475 69.1895 42.3029 69.2796C39.2096 70.1712 35.9763 70.336 32.8311 69.7625C29.686 69.189 26.7057 67.891 24.1005 65.9603C21.4954 64.0296 19.329 61.5132 17.7542 58.5886C16.1794 55.6641 15.2346 52.4027 14.9865 49.0347C14.5444 43.0291 16.2019 37.0366 19.6453 32.1921L19.642 32.1831Z" fill="#F0F0F0"/>
<path d="M22.9532 46.7614C22.396 45.3814 21.9755 43.9429 21.6981 42.4686C21.4194 40.9908 21.2782 39.4862 21.2763 37.9762C21.2828 36.4655 21.4274 34.9574 21.708 33.473C21.7795 33.0969 21.8702 32.7369 21.9564 32.3649C22.0426 31.993 22.149 31.6401 22.2453 31.2777L22.5918 30.2043C22.7186 29.8533 22.855 29.5016 22.9897 29.1542L22.6556 30.2258L22.3656 31.31C22.2884 31.6885 22.1916 32.0407 22.1128 32.4061C22.0341 32.7715 21.9689 33.138 21.9076 33.5064C21.4172 36.4623 21.4133 39.4802 21.8962 42.4265C22.1359 43.9008 22.4894 45.3505 22.9532 46.7614V46.7614Z" fill="#1319B5"/>
<path d="M55.9494 58.4884C54.6121 59.3923 53.185 60.1363 51.6947 60.7065C50.2001 61.2721 48.6559 61.6736 47.0867 61.9044C45.5132 62.1178 43.9246 62.1552 42.3474 62.0161C40.7794 61.8729 39.233 61.5464 37.7367 61.0425C38.4999 61.2324 39.2676 61.4341 40.0396 61.5407C40.8118 61.677 41.5907 61.7697 42.373 61.8185C43.9343 61.9255 45.5035 61.8681 47.0574 61.6469C48.6131 61.4292 50.1468 61.0529 51.637 60.5233C53.1287 59.9847 54.5722 59.3036 55.9494 58.4884V58.4884Z" fill="#1319B5"/>
<path opacity="0.3" d="M93.2557 280.3C93.2557 280.3 14.042 298.241 6.3418 284.018C2.76053 277.385 20.1778 267.603 20.1778 267.603C20.1778 267.603 8.56036 276.235 13.7646 279.663C23.4686 286.049 77.6797 271.783 77.6797 271.783L93.2557 280.3Z" fill="white"/>
<path opacity="0.3" d="M46.1405 290.321L57.9719 288.53C59.9424 288.221 61.9124 287.956 63.8786 287.627C65.8448 287.299 67.8104 287.014 69.7767 286.676C71.743 286.337 73.7043 286.033 75.6617 285.676C77.619 285.318 79.572 284.951 81.5382 284.617C85.449 283.854 89.3515 283.032 93.2546 282.152C89.488 283.586 85.6457 284.78 81.7485 285.728C79.7987 286.207 77.8403 286.637 75.8779 287.029C73.9155 287.42 71.9445 287.763 69.9735 288.111C68.0025 288.459 66.0235 288.719 64.0399 288.97C63.0528 289.093 62.0611 289.216 61.0695 289.325C60.078 289.433 59.0818 289.551 58.0905 289.636C54.0882 290.031 50.1058 290.304 46.1405 290.321Z" fill="white"/>
<path opacity="0.3" d="M16.5344 273.2C16.2241 273.667 15.9882 274.184 15.8361 274.73C15.7713 274.988 15.737 275.254 15.7342 275.52C15.7411 275.766 15.7957 276.007 15.8947 276.228C16.1034 276.669 16.4432 277.024 16.8625 277.24C17.295 277.485 17.7542 277.675 18.2304 277.806C19.2506 278.062 20.292 278.218 21.3414 278.271C22.3991 278.362 23.4761 278.38 24.5489 278.373C25.6216 278.367 26.7036 278.351 27.7859 278.31C28.8683 278.27 29.9507 278.22 31.0331 278.175C33.2071 278.085 35.3863 277.941 37.5867 277.938C35.4717 278.539 33.3237 278.996 31.156 279.305C30.6139 279.395 30.0675 279.466 29.5214 279.518C28.9752 279.57 28.4287 279.645 27.8782 279.683C26.7815 279.771 25.6762 279.812 24.5713 279.828C22.3624 279.787 20.1175 279.688 17.9368 278.886C17.3811 278.679 16.8557 278.392 16.3755 278.033C15.8542 277.656 15.4666 277.106 15.2727 276.469C15.1221 275.837 15.2028 275.165 15.4987 274.589C15.7529 274.058 16.1051 273.586 16.5344 273.2V273.2Z" fill="white"/>
<g clip-path="url(#clip1_103_33)">
<path d="M192.166 92.8718C189.412 91.508 186.325 91.0592 183.307 91.5842C180.289 92.1091 177.482 93.5833 175.252 95.814C174.232 92.9131 172.361 90.4406 169.912 88.754C167.463 87.0673 164.561 86.2539 161.627 86.4314C164.296 85.37 167.231 85.3875 169.866 86.4806C172.57 87.6138 174.781 89.7515 176.089 92.4959C182.176 86.9407 188.533 89.8382 192.166 92.8718Z" fill="#E0E0E0"/>
<path d="M214.79 86.9674C213.018 86.0876 211.03 85.7974 209.087 86.1349C207.144 86.4724 205.336 87.4219 203.901 88.8587C203.245 86.9936 202.043 85.4032 200.47 84.3162C198.897 83.2293 197.032 82.7019 195.146 82.8098C196.867 82.1286 198.76 82.1444 200.458 82.8542C202.192 83.5849 203.609 84.9594 204.446 86.7222C208.369 83.1493 212.44 85.0103 214.79 86.9674Z" fill="#E0E0E0"/>
<path d="M88.7454 185.137C86.7857 185.024 84.8328 185.539 83.1419 186.614C81.4511 187.69 80.1007 189.276 79.2674 191.166C77.9989 189.697 76.317 188.698 74.465 188.313C72.6129 187.928 70.6868 188.178 68.9653 189.026C70.3317 187.72 72.1022 186.991 73.9343 186.981C75.808 186.975 77.6125 187.689 79.0125 188.99C81.4081 184.131 85.8768 184.249 88.7454 185.137Z" fill="#E0E0E0"/>
<path d="M198.745 63.3877C196.977 62.514 194.995 62.2246 193.058 62.5571C191.11 62.8988 189.298 63.8462 187.852 65.278C187.195 63.4113 185.992 61.8204 184.415 60.7353C182.839 59.6502 180.972 59.1273 179.084 59.2422C180.806 58.561 182.698 58.5768 184.396 59.2867C186.131 60.0216 187.548 61.4017 188.382 63.1697C192.315 59.5676 196.405 61.4325 198.745 63.3877Z" fill="#E0E0E0"/>
</g>
<g clip-path="url(#clip2_103_33)">
<path d="M174.126 45.3157C174.157 45.0474 174.262 44.7938 174.428 44.5872C174.595 44.3805 174.815 44.23 175.061 44.1549C175.307 44.0798 175.567 44.0834 175.81 44.1652C176.052 44.247 176.265 44.4033 176.422 44.6144C176.579 44.8255 176.673 45.0818 176.691 45.3508C176.71 45.6198 176.652 45.8894 176.526 46.1254C176.4 46.3614 176.21 46.5532 175.982 46.6765C175.753 46.7997 175.496 46.8488 175.243 46.8177C175.076 46.7977 174.914 46.743 174.767 46.6567C174.621 46.5704 174.492 46.4542 174.388 46.3148C174.284 46.1753 174.208 46.0153 174.163 45.8438C174.118 45.6724 174.106 45.493 174.126 45.3157Z" fill="#F0F0F0"/>
<path d="M118.381 131.713L118.603 132.24C118.848 132.853 119.255 133.376 119.776 133.747L120.222 134.078L119.722 134.318C119.139 134.582 118.639 135.019 118.283 135.576L117.966 136.051L117.744 135.524C117.502 134.909 117.094 134.385 116.57 134.017L116.125 133.686L116.625 133.446C117.208 133.182 117.708 132.745 118.063 132.188L118.381 131.713Z" fill="#F0F0F0"/>
<path d="M51.3729 59.7827L51.7597 60.7295C52.1852 61.786 52.8892 62.6883 53.7885 63.3296L54.5876 63.9115L53.6927 64.3313C52.6872 64.7917 51.8246 65.5458 51.2071 66.5044L50.6481 67.3556L50.2608 66.4138C49.8374 65.3564 49.1352 64.4525 48.2372 63.8092L47.4334 63.2268L48.333 62.8075C49.336 62.3475 50.1967 61.595 50.8134 60.639L51.3729 59.7827Z" fill="#F0F0F0"/>
<path d="M16.3385 107.97L16.4079 108.144C16.4872 108.338 16.6169 108.505 16.7821 108.624L16.9296 108.729L16.7648 108.804C16.58 108.89 16.4211 109.029 16.3063 109.205L16.2053 109.362L16.1359 109.189C16.0582 108.993 15.9282 108.827 15.7617 108.708L15.6142 108.603L15.779 108.528C15.9648 108.444 16.1241 108.305 16.2375 108.127L16.3385 107.97Z" fill="#F0F0F0"/>
<path d="M175.327 82.2643L175.397 82.4377C175.474 82.6333 175.604 82.8003 175.771 82.9183L175.918 83.0234L175.753 83.0986C175.568 83.183 175.408 83.3223 175.295 83.4996L175.194 83.6567L175.125 83.4833C175.047 83.2877 174.917 83.1207 174.75 83.0026L174.603 82.8975L174.768 82.8223C174.953 82.738 175.113 82.5987 175.226 82.4214L175.327 82.2643Z" fill="#F0F0F0"/>
<path d="M25.5351 169.152L25.5912 169.527C25.6486 169.946 25.8186 170.338 26.0811 170.657L26.3205 170.941L25.9623 170.998C25.5652 171.065 25.1935 171.251 24.8912 171.534L24.6172 171.784L24.5656 171.411C24.5065 170.99 24.335 170.598 24.0712 170.279L23.8363 169.997L24.1901 169.938C24.5883 169.871 24.9614 169.685 25.2656 169.403L25.5351 169.152Z" fill="#F0F0F0"/>
<path d="M122.632 9.65465L123.019 10.5965C123.443 11.6539 124.145 12.5578 125.043 13.2011L125.842 13.783L124.947 14.2028C123.944 14.6628 123.083 15.4153 122.467 16.3713L121.908 17.2226L121.52 16.2808C121.095 15.2243 120.391 14.322 119.491 13.6807L118.692 13.0988L119.587 12.679C120.593 12.2186 121.455 11.4645 122.073 10.5059L122.632 9.65465Z" fill="#F0F0F0"/>
</g>
<path opacity="0.3" d="M179.196 149.722C179.196 149.722 274.002 138.018 277.845 119.016C279.639 110.144 256.819 106.167 256.819 106.167C256.819 106.167 272.005 110.614 268.062 117.109C259.561 131.12 179.196 149.722 179.196 149.722Z" fill="white"/>
<path opacity="0.3" d="M235.392 142.04C230.898 143.615 226.361 144.91 221.782 146.081C220.64 146.385 219.49 146.66 218.341 146.929C217.191 147.199 216.042 147.468 214.886 147.748C212.578 148.263 210.262 148.702 207.949 149.164C205.636 149.627 203.299 149.989 200.966 150.323C198.632 150.657 196.291 150.962 193.953 151.221C189.264 151.726 184.553 151.929 179.847 151.83C184.527 151.249 189.192 150.61 193.809 149.891C196.124 149.475 198.442 149.185 200.75 148.717C203.059 148.248 205.372 147.9 207.681 147.478C209.991 147.055 212.302 146.616 214.604 146.158C216.906 145.7 219.218 145.244 221.524 144.804L235.392 142.04Z" fill="white"/>
<path opacity="0.3" d="M262.797 110.974C263.422 111.267 263.944 111.759 264.291 112.381C264.474 112.714 264.595 113.08 264.649 113.462C264.691 113.843 264.678 114.229 264.61 114.607C264.455 115.354 264.156 116.061 263.733 116.683C263.337 117.294 262.885 117.861 262.382 118.376C260.372 120.311 258.11 121.931 255.668 123.186C254.467 123.824 253.259 124.421 252.029 124.97C251.416 125.244 250.795 125.501 250.174 125.752C249.552 126.002 248.93 126.265 248.296 126.48C245.79 127.42 243.231 128.188 240.634 128.78C243.019 127.515 245.442 126.408 247.834 125.24C249.031 124.648 250.239 124.103 251.416 123.486C252.594 122.869 253.787 122.305 254.94 121.663C256.093 121.02 257.233 120.388 258.385 119.694C259.494 119.01 260.556 118.244 261.563 117.401C262.047 116.98 262.499 116.52 262.916 116.025C263.331 115.551 263.656 114.996 263.87 114.393C263.97 114.1 264.03 113.794 264.05 113.485C264.051 113.169 264.004 112.856 263.91 112.558C263.684 111.931 263.299 111.383 262.797 110.974V110.974Z" fill="white"/>
</g>
<defs>
<filter id="filter0_d_103_33" x="-11.5691" y="92.4858" width="388.731" height="254.448" filterUnits="userSpaceOnUse" color-interpolation-filters="sRGB">
<feFlood flood-opacity="0" result="BackgroundImageFix"/>
<feColorMatrix in="SourceAlpha" type="matrix" values="0 0 0 0 0 0 0 0 0 0 0 0 0 0 0 0 0 0 127 0" result="hardAlpha"/>
<feOffset dy="8"/>
<feGaussianBlur stdDeviation="12.5"/>
<feComposite in2="hardAlpha" operator="out"/>
<feColorMatrix type="matrix" values="0 0 0 0 0 0 0 0 0 0 0 0 0 0 0 0 0 0 0.15 0"/>
<feBlend mode="normal" in2="BackgroundImageFix" result="effect1_dropShadow_103_33"/>
<feBlend mode="normal" in="SourceGraphic" in2="effect1_dropShadow_103_33" result="shape"/>
</filter>
<linearGradient id="paint0_linear_103_33" x1="190.976" y1="-1.86623" x2="187.328" y2="707.387" gradientUnits="userSpaceOnUse">
<stop stop-color="#7460D4"/>
<stop offset="0.604217" stop-color="#F0A1C6" stop-opacity="0.447917"/>
<stop offset="1" stop-color="#8C8DA5" stop-opacity="0.12"/>
</linearGradient>
<linearGradient id="paint1_linear_103_33" x1="65" y1="663" x2="310" y2="663" gradientUnits="userSpaceOnUse">
<stop offset="0.375" stop-color="#6760D4"/>
<stop offset="0.640625" stop-color="#A435FC"/>
</linearGradient>
<linearGradient id="paint2_linear_103_33" x1="27.8745" y1="20.722" x2="53.3508" y2="59.4986" gradientUnits="userSpaceOnUse">
<stop stop-color="#2228B8"/>
<stop offset="1" stop-color="#393EBC"/>
</linearGradient>
<clipPath id="clip0_103_33">
<rect width="375" height="812" fill="white" transform="translate(-6.10352e-05 0.796814)"/>
</clipPath>
<clipPath id="clip1_103_33">
<rect width="241.514" height="255.651" fill="white" transform="translate(80.0596 -1.25116) rotate(5.46665)"/>
</clipPath>
<clipPath id="clip2_103_33">
<rect width="237.66" height="251.572" fill="white" transform="translate(-43.3536 -6.23169) rotate(5.46665)"/>
</clipPath>
</defs>
</svg>
